<svg xmlns="http://www.w3.org/2000/svg" width="1000" height="1000"><path fill="#f84fff" d="M0 499.994V1000h1000.013V-.013H0zm277.837 211.502c5.833 1.2 12.733 3.734 22.2 8.134 2.033.933 4.2 1.8 5.767 2.267.333.1 1.233.533 2 .966a76 76 0 0 0 2.867 1.467c.833.367 1.933.933 2.433 1.167.533.266 1.067.5 1.233.5.6 0 5.567 3.133 8.1 5.1a146 146 0 0 0 4.167 3.166c4.5 3.234 16.134 14.367 20.034 19.234 2.633 3.3 8.233 9.033 9.666 9.9 1.334.8 1.667 1.1 5.534 4.6 1.467 1.333 3.433 2.933 4.4 3.567 2.767 1.766 6.533 5.333 8.667 8.267 1.1 1.466 2.233 2.866 2.566 3.133.6.5 2.234 2.833 3.1 4.467.834 1.6.834 10.266 0 13.067-1.566 5.166-2.666 7.2-5 9.366-2.3 2.134-6.5 4.3-11.9 6.134-2.833.966-3.666 1.1-8 1.233-3.367.133-6.033 0-8.833-.367-2.2-.3-5.434-.7-7.167-.9-3.267-.366-5.233-1.1-8.234-3.066-.8-.534-2.433-1.467-3.666-2.1-1.2-.634-2.667-1.5-3.234-1.9-.566-.4-1.266-.9-1.6-1.067-.933-.533-5.2-3.5-5.7-3.933-.233-.234-.933-.767-1.566-1.2-1.434-1-4.334-3.534-8.734-7.634-6.3-5.833-14.233-11.667-18.767-13.733-3.766-1.734-5.266-2.4-6.5-2.934-.633-.266-1.566-.7-2.067-.966-.466-.234-1.166-.434-1.5-.434-.366 0-.933-.233-1.3-.5-.333-.266-.966-.5-1.366-.5s-1.134-.2-1.667-.466c-.5-.267-2.133-.967-3.6-1.567s-2.9-1.267-3.167-1.467c-.266-.233-.733-.5-1-.633-.266-.1-.933-.5-1.5-.867-.533-.367-1.3-.8-1.666-.967-.834-.4-9.534-9.2-10.267-10.433-.3-.5-.567-1.133-.567-1.367 0-.266-.433-1.5-.967-2.766-.5-1.267-1.2-3.2-1.5-4.3-.333-1.1-.733-2.467-.9-3-.633-1.9-2.233-7.4-2.7-9.334-.333-1.433-.066-6.5.467-8.667.167-.733.433-1.866.6-2.5 1-4.266 2.8-7.4 5.667-10 3.233-2.967 3.867-3.4 5.667-4.133.833-.334 1.766-.734 2.1-.9 1.1-.6 3.733-1.434 5.233-1.667 2.267-.4 9.167-.067 12.167.533"/><g fill="#3d9240"><path d="M265.67 710.963c-1.5.233-4.133 1.067-5.233 1.667-.334.166-1.267.566-2.1.9-1.8.733-2.434 1.166-5.667 4.133-2.867 2.6-4.667 5.734-5.667 10a94 94 0 0 0-.6 2.5c-.2.734-.4 2.167-.467 3.2-.133 1.634-.066 1.867.4 1.734.334-.1.667.066.767.366.133.334.633.534 1.333.534.834 0 1.4-.3 2.4-1.367.734-.733 1.767-1.6 2.334-1.867.533-.3 2.3-1.8 3.9-3.3 1.567-1.533 3.033-2.8 3.233-2.8.167 0 1.2-.8 2.267-1.766 1.067-.967 2.5-2.1 3.2-2.534.667-.4 1.233-.9 1.233-1.066s.367-.3.834-.3.933-.234 1.033-.5c.133-.267.567-.5 1-.5.467 0 .9-.234 1-.5q.2-.5 1.6-.5c.767 0 1.7-.234 2.067-.5.933-.734 11.3-.734 11.6 0 .133.366.7.5 2 .5s1.833.133 2 .5c.1.333.633.5 1.5.5.833 0 1.367.166 1.5.5.1.333.633.5 1.5.5.833 0 1.367.166 1.5.5.1.266.533.5 1 .5.433 0 .867.233 1 .5.1.266.533.5 1 .5.433 0 .867.233 1 .5.1.266.433.5.767.5.766 0 6.833 3.033 7.2 3.566.133.234.633.434 1.033.434.434 0 .867.233 1 .5.1.266.534.5 1 .5.434 0 .867.233 1 .5.1.266.5.5.867.5.4 0 1.1.433 1.567 1 .433.533 1.1 1 1.433 1 .367 0 1.033.366 1.533.833s1.267.933 1.7 1.033c.434.134.767.334.767.467 0 .167.567.6 1.267 1.033.666.4 1.633 1.1 2.1 1.534.5.466 1.566 1.3 2.4 1.866 3.6 2.534 4.433 3.2 6.933 5.467 1.467 1.333 2.8 2.433 3 2.433s3 2.567 6.2 5.7c3.234 3.134 6.267 5.934 6.734 6.234s2.4 2 4.266 3.8 3.534 3.267 3.734 3.267c.166 0 1.1.666 2.1 1.5.966.833 2.1 1.6 2.5 1.7.433.133.767.333.767.466 0 .3 3.6 2.667 4.066 2.667.334 0 2 1.1 3.434 2.334l1 .833-.834-.933c-.466-.534-1.833-1.6-3.033-2.4-1.233-.8-3.4-2.534-4.833-3.867-3.834-3.467-4.167-3.767-5.5-4.567-1.434-.867-7.034-6.6-9.667-9.9-3.9-4.867-15.534-16-20.034-19.234-.833-.6-2.733-2.033-4.167-3.166-2.533-1.967-7.5-5.1-8.1-5.1-.166 0-.7-.234-1.233-.5-.5-.234-1.6-.8-2.433-1.167a76 76 0 0 1-2.867-1.467c-.767-.433-1.667-.866-2-.966-1.567-.467-3.734-1.334-5.767-2.267-9.467-4.4-16.367-6.934-22.2-8.134-3-.6-9.9-.933-12.167-.533"/><path d="M275.47 725.497c-.333.266-.967.5-1.367.5-1.066 0-3.9 1.533-5.633 3.033-.833.7-1.667 1.3-1.833 1.3-.167 0-1.634 1.233-3.234 2.767s-3.433 3.1-4.066 3.5c-1.067.633-8.5 8-10.167 10.067-.5.6-.6 1.066-.434 1.666 1.1 4 1.467 5.134 2.3 7.134.534 1.266.967 2.5.967 2.766 0 .234.267.867.567 1.367.733 1.233 9.433 10.033 10.267 10.433.366.167 1.133.6 1.666.967.567.367 1.234.767 1.5.867.267.133.734.4 1 .633.267.2 1.7.867 3.167 1.467s3.1 1.3 3.6 1.567c.533.266 1.267.466 1.667.466s1.033.234 1.366.5c.367.267.967.5 1.367.5.367 0 1 .234 1.433.5.667.467.7.467.534 0-.167-.433.467-.5 5.3-.5 4.567 0 5.533.1 5.7.5.1.334.633.5 1.5.5.833 0 1.367.167 1.5.5.1.267.467.5.833.5.767 0 2.767 1 3.134 1.567.133.233.566.433.9.433.366 0 1.266.667 2.033 1.5.767.834 1.667 1.5 2 1.5s1.233.667 2 1.5c.767.834 1.667 1.5 2.034 1.5.333 0 1.1.534 1.666 1.2.6.667 1.834 1.734 2.8 2.4 3.867 2.734 4.634 3.3 6.3 4.8.934.9 1.967 1.6 2.267 1.6.333 0 1.1.6 1.767 1.334.666.733 1.733 1.666 2.4 2.067.7.4 1.9 1.3 2.7 2s1.833 1.366 2.233 1.466.833.4.933.667.534.467 1 .467c.434 0 .867.233 1 .5.1.266.534.5 1 .5.434 0 .867.233 1 .5.1.266.534.5.934.5.433 0 1.067.233 1.4.5.367.266 1.033.5 1.5.5s1.167.233 1.5.5c.4.3 1.4.5 2.5.5 1.1.033 2.133.233 2.5.5.5.4 1.767.5 5.533.5s5.034-.1 5.534-.5c.4-.3 1.433-.467 3-.5 1.533 0 2.567-.167 3-.5.333-.267 1.2-.5 1.9-.5.8 0 1.333-.167 1.433-.5.134-.267.567-.5 1-.5.467 0 .9-.234 1-.5.134-.267.567-.5 1-.5.467 0 .9-.234 1-.5.134-.267.4-.5.634-.5.6 0 2.5-1.934 2.5-2.534 0-.266.133-.466.3-.466.633 0 1.7-2.267 1.7-3.6 0-.867.166-1.4.5-1.534.7-.267.7-4.467 0-5.4-.267-.333-.5-1.2-.5-1.9 0-.8-.167-1.333-.5-1.433-.267-.134-.5-.567-.5-1 0-.467-.234-.9-.5-1-.267-.134-.5-.534-.5-.934 0-.966-5.267-6.2-6.234-6.2-.366 0-.766-.233-.9-.5-.1-.266-.533-.5-1-.5-.433 0-.866-.233-1-.5-.1-.3-.6-.5-1.333-.5-.633 0-1.6-.266-2.134-.566-.933-.534-1.033-.534-1.833 0-.5.3-1.2.566-1.567.566-.366 0-.766.234-.866.5-.134.267-.567.5-1 .5-.467 0-.9.234-1 .5-.134.267-.567.5-1 .5-.467 0-.9.2-1 .467s-.567.567-1.034.7c-1.233.3-7.1 6.1-7.1 7 0 .433-.233.833-.5.967-.3.1-.5.633-.5 1.366s.2 1.267.5 1.367c.267.133.5.567.5.967 0 .566 1.267 2 4.5 5.066 4.3 4.134 4.5 4.367 4.5 5.634 0 1.867-1.633 3.467-3.533 3.467-.967 0-1.433-.167-1.733-.667-.234-.4-1.1-1.133-1.934-1.633-2.1-1.367-4.5-3.7-5.3-5.167-.333-.7-1-1.6-1.5-2-1-.9-2-2.667-2-3.567 0-.367-.233-.733-.5-.833-.366-.167-.5-.767-.5-2.634s.134-2.466.5-2.633c.267-.1.5-.467.5-.833 0-.767.9-2.5 1.9-3.6.4-.467.834-1.134.934-1.467.266-.833 4.2-4.567 5.833-5.533.733-.434 1.333-.934 1.333-1.134 0-.166.367-.3.834-.3s.933-.233 1.033-.5c.133-.267.567-.5.967-.5.533 0 1-.4 1.533-1.2.733-1.2.733-1.233.133-2.367-.333-.633-1.2-1.466-1.9-1.9-.7-.4-2.933-2.3-5-4.233-2.066-1.9-3.966-3.633-4.233-3.8-.233-.2-2.733-2.533-5.533-5.267-2.8-2.7-5.267-4.9-5.5-4.9-.2 0-1.1-.7-2.034-1.566s-2.333-2.034-3.133-2.6c-3.067-2.134-4.267-3.034-5.5-4.1-.667-.567-1.5-1.067-1.8-1.067-.334 0-.967-.467-1.434-1-.433-.567-1.133-1-1.5-1-.333 0-1.033-.467-1.5-1-.466-.567-1.133-1-1.6-1-.4 0-.833-.234-.966-.5-.1-.267-.534-.5-1-.5-.434 0-.867-.234-1-.5-.1-.267-.534-.5-1-.5-.434 0-.867-.2-.967-.434-.234-.6-4.067-2.566-5.034-2.566-.433 0-.866-.234-1-.5-.1-.267-.533-.5-1-.5-.433 0-.866-.234-1-.5-.1-.267-.533-.5-1-.5-.433 0-.866-.234-1-.5-.1-.267-.533-.5-.933-.5-.433 0-1.067-.234-1.4-.5-.367-.267-1.033-.5-1.5-.5s-1.167-.234-1.5-.5c-.367-.267-1.3-.5-2.067-.5q-1.4 0-1.6-.5c-.266-.734-9.433-.734-10.4 0M245.736 737.33c0 .633.067.9.167.567.067-.3.067-.834 0-1.167-.1-.3-.167-.033-.167.6M246.37 740.497c.033.633.6 1.7.6 1.166 0-.266-.134-.733-.3-1-.167-.266-.3-.366-.3-.166M247.003 743.163c0 .167.167.567.333.834.167.266.334.333.334.166 0-.2-.167-.566-.334-.833-.166-.267-.333-.367-.333-.167M372.338 776.83c.433.467.867.834.933.834.1 0-.166-.367-.6-.833-.433-.467-.866-.834-.933-.834-.1 0 .167.367.6.834"/><path d="M282.237 778.697c.233.234.5.334.6.234s-.067-.3-.4-.4c-.467-.2-.5-.167-.2.166M374.005 779.13c0 .067.266.334.6.567.5.434.533.4.1-.133s-.7-.7-.7-.433M285.67 780.13c0 .067.234.234.534.334.266.1.4.067.3-.133-.2-.334-.834-.467-.834-.2M375.005 780.464c0 .067.266.333.6.567.5.433.533.4.1-.134-.434-.533-.7-.7-.7-.433M288.904 781.697c.233.234.5.334.6.234s-.067-.3-.4-.4c-.467-.2-.5-.167-.2.166M376.505 782.33c.333.367.666.667.766.667s-.1-.3-.433-.666-.667-.667-.767-.667.1.3.434.667M290.037 782.097c.067.034.433.3.8.567.633.467.633.467.2-.1-.233-.3-.6-.567-.8-.567q-.3 0-.2.1M377.671 783.464c0 .067.267.333.6.567.5.433.534.4.1-.134-.433-.533-.7-.7-.7-.433M293.337 784.13c0 .067.267.334.6.567.5.434.533.4.1-.133s-.7-.7-.7-.433M294.67 785.13c0 .067.267.334.6.567.5.434.534.4.1-.133-.433-.533-.7-.7-.7-.433M379.005 785.464c0 .067.266.333.6.567.5.433.533.4.1-.134-.434-.533-.7-.7-.7-.433M296.037 786.097c.067.034.433.3.8.567.633.467.633.467.2-.1-.233-.3-.6-.567-.8-.567q-.3 0-.2.1M297.67 787.097c0 .067.5.534 1.1 1.1l1.067.967-.967-1.1c-.933-1-1.2-1.233-1.2-.967M380.705 788.53c0 .367.1.467.2.2.1-.233.066-.533-.034-.633-.1-.133-.2.067-.166.434M300.004 789.13c0 .067.266.334.6.567.5.434.533.4.1-.133s-.7-.7-.7-.433M301.337 790.13c0 .067.267.334.6.567.5.434.533.4.1-.133s-.7-.7-.7-.433M381.138 793.83c0 1.834.033 2.534.1 1.567s.067-2.466 0-3.333-.1-.067-.1 1.767M303.67 792.13c0 .067.267.334.6.567.5.434.534.4.1-.133-.433-.533-.7-.7-.7-.433M307.17 795.33c.334.367.667.667.767.667s-.1-.3-.433-.666-.667-.667-.767-.667.1.3.434.667M309.004 797.13c0 .067.267.334.6.567.5.434.533.4.1-.133s-.7-.7-.7-.433M310.337 798.13c0 .067.267.334.6.567.5.434.534.4.1-.133-.433-.533-.7-.7-.7-.433M380.705 798.897c-.034.2-.134.667-.234 1-.166.567-.166.567.2 0 .2-.333.3-.766.2-1-.1-.3-.166-.3-.166 0M312.67 800.098c0 .066.5.533 1.1 1.1l1.067.966-.966-1.1c-.934-1-1.2-1.233-1.2-.966M380.038 801.198c0 .366.1.466.2.2.1-.234.067-.534-.033-.634-.1-.133-.2.067-.167.434M315.17 802.33c.1.168.534.5.934.7.733.4.733.4.1-.332-.633-.7-1.433-1-1.033-.367M379.405 803.164c-.567 1.234-.467 1.5.133.4.3-.533.467-1.033.367-1.1-.067-.066-.3.234-.5.7M317.67 804.13c0 .068.267.334.6.568.5.433.534.4.1-.134-.433-.533-.7-.7-.7-.433M378.405 805.064c-.234.234-.4.634-.4.934 0 1.133-6.834 7-8.167 7-.233 0-.6.233-.833.5-.6.733-.234.633 2.3-.667 2.833-1.4 6.066-4.367 7.033-6.367.767-1.533.767-2.1.067-1.4M319.037 805.098c.067.033.5.366.967.733l.833.667-.633-.767c-.367-.4-.8-.733-.967-.733q-.3 0-.2.1M322.337 807.498c.234.266.567.5.734.5.2 0 .166-.234-.067-.5-.233-.267-.567-.5-.733-.5-.2 0-.167.233.066.5M323.67 808.13c0 .068.267.334.6.568.5.433.534.4.1-.134-.433-.533-.7-.7-.7-.433M325.004 809.13c0 .068.267.334.6.568.5.433.533.4.1-.134-.433-.533-.7-.7-.7-.433M326.67 810.131c0 .067.234.233.534.333.267.1.4.067.3-.133-.2-.333-.833-.467-.833-.2M332.004 813.131c0 .067.267.333.6.567.5.433.533.4.1-.134-.433-.533-.7-.7-.7-.433M366.005 814.498c-.234.266-.967.5-1.634.5-.7 0-1.533.233-1.9.5-.4.3-1.433.466-2.967.5-1.5 0-2.6.166-3.033.5-.467.3-1.833.533-3.833.6-1.734.066-.567.1 2.533.033 5.467-.1 5.767-.133 8.834-1.2 1.733-.633 3.466-1.3 3.833-1.533.6-.334.567-.367-.367-.4-.566 0-1.233.233-1.466.5M335.67 815.298c.268.166 1.368.366 2.434.433 2.5.2 1.7-.233-.933-.533-1.233-.134-1.8-.1-1.5.1M342.104 816.231c.3.067.834.067 1.167 0 .3-.1.033-.167-.6-.167s-.9.067-.567.167M344.438 816.564c.3.067.833.067 1.166 0 .3-.1.034-.166-.6-.166-.633 0-.9.066-.566.166M346.771 816.898c.3.066.833.066 1.167 0 .3-.1.033-.167-.6-.167-.634 0-.9.067-.567.167"/></g><path fill="#0f0d0f" d="M274.537 718.496c-.367.267-1.3.5-2.067.5q-1.4 0-1.6.5c-.1.267-.533.5-1 .5-.433 0-.867.234-1 .5-.1.267-.567.5-1.033.5-.467 0-.834.134-.834.3 0 .167-.566.667-1.233 1.067-.7.434-2.133 1.567-3.2 2.534s-2.1 1.766-2.267 1.766c-.2 0-1.666 1.267-3.233 2.8-1.6 1.5-3.367 3-3.9 3.3-.567.267-1.6 1.134-2.334 1.867-1 1.033-1.566 1.367-2.4 1.367-.633 0-1.2-.2-1.366-.567-.2-.3-.534-.467-.834-.333-.433.166-.5.566-.366 1.966.1.967.4 2.467.666 3.334.267.9.667 2.3.934 3.166.266.9.6 2.1.7 2.667.2 1 .833 1.567.833.767 0-.567 8.967-9.6 10.3-10.4.667-.4 2.5-1.967 4.1-3.5 1.6-1.534 3.067-2.767 3.234-2.767s1-.6 1.833-1.3c1.733-1.5 4.567-3.033 5.633-3.033.4 0 1.034-.234 1.367-.5.967-.734 10.134-.734 10.4 0q.2.5 1.6.5c.767 0 1.7.233 2.067.5.333.266 1.033.5 1.5.5s1.133.233 1.5.5c.333.266.967.5 1.4.5.4 0 .833.233.933.5.134.266.567.5 1 .5.467 0 .9.233 1 .5.134.266.567.5 1 .5.467 0 .9.233 1 .5.134.266.567.5 1 .5.967 0 4.8 1.966 5.034 2.566.1.234.533.434.966.434.467 0 .9.233 1 .5.134.266.567.5 1 .5.467 0 .9.233 1 .5.134.266.567.5.967.5.467 0 1.134.433 1.6 1 .467.533 1.167 1 1.5 1 .367 0 1.067.433 1.5 1 .467.533 1.1 1 1.434 1 .3 0 1.133.5 1.8 1.066 1.233 1.067 2.433 1.967 5.5 4.1.8.567 2.2 1.734 3.133 2.6s1.833 1.567 2.033 1.567c.234 0 2.7 2.2 5.5 4.9 2.8 2.734 5.3 5.067 5.534 5.267.267.167 2.167 1.9 4.233 3.8 2.067 1.933 4.3 3.833 5 4.233.7.434 1.567 1.267 1.9 1.9.6 1.134.6 1.167-.133 2.367-.533.8-1 1.2-1.533 1.2-.4 0-.834.233-.967.5-.1.267-.567.5-1.033.5-.467 0-.834.134-.834.3 0 .2-.6.7-1.333 1.134-1.633.966-5.567 4.7-5.833 5.533-.1.333-.534 1-.934 1.467-1 1.1-1.9 2.833-1.9 3.6 0 .366-.233.733-.5.833-.366.167-.5.767-.5 2.633s.134 2.467.5 2.634c.267.1.5.466.5.833 0 .9 1 2.667 2 3.567.5.4 1.167 1.3 1.5 2 .8 1.466 3.2 3.8 5.3 5.167.834.5 1.7 1.233 1.934 1.633.333.5.766.667 1.766.667 1.9 0 3.5-1.6 3.5-3.5 0-1.2-.233-1.5-4.5-5.6-3.233-3.067-4.5-4.5-4.5-5.067 0-.4-.233-.834-.5-.967-.3-.1-.5-.633-.5-1.367 0-.733.2-1.266.5-1.366.267-.134.5-.534.5-.967 0-.9 5.867-6.7 7.1-7 .467-.133.934-.433 1.034-.7s.533-.467 1-.467c.433 0 .866-.233 1-.5.1-.266.533-.5 1-.5.433 0 .866-.233 1-.5.1-.266.466-.5.833-.5s1.1-.266 1.633-.566c.934-.534 1.034-.534 1.834 0 .5.3 1.4.566 2.067.566.733 0 1.266.2 1.366.5.134.267.567.5 1 .5.467 0 .9.234 1 .5.134.267.534.5.934.5.966 0 6.2 5.267 6.2 6.234 0 .366.233.766.5.9.266.1.5.533.5 1 0 .433.233.866.5 1 .333.1.5.633.5 1.433 0 .7.233 1.567.5 1.9.7.933.7 5.133 0 5.4-.334.133-.5.667-.5 1.533 0 1.334-1.067 3.6-1.7 3.6-.167 0-.3.2-.3.467 0 .6-1.9 2.534-2.5 2.534-.234 0-.5.233-.634.5-.1.266-.533.5-1 .5-.433 0-.866.233-1 .5-.1.266-.533.5-1 .5-.433 0-.866.233-1 .5-.1.333-.633.5-1.433.5-.7 0-1.567.233-1.9.5-.433.333-1.467.5-3 .5-1.567.033-2.6.2-3 .5-.5.4-1.767.5-5.534.5s-5.033-.1-5.533-.5c-.367-.267-1.4-.467-2.5-.5-1.1 0-2.1-.2-2.5-.5-.333-.267-1.033-.5-1.5-.5s-1.133-.234-1.5-.5c-.333-.267-.967-.5-1.4-.5-.4 0-.833-.234-.933-.5-.134-.267-.567-.5-1-.5-.467 0-.9-.234-1-.5-.134-.267-.567-.5-1-.5-.467 0-.9-.2-1-.467s-.534-.567-.934-.667-1.433-.766-2.233-1.466-2-1.6-2.7-2c-.667-.4-1.734-1.334-2.4-2.067-.667-.734-1.434-1.334-1.767-1.334-.3 0-1.333-.7-2.267-1.6-1.666-1.5-2.433-2.066-6.3-4.8-.966-.666-2.2-1.733-2.8-2.4-.566-.666-1.333-1.2-1.666-1.2-.367 0-1.267-.666-2.034-1.5-.767-.833-1.667-1.5-2-1.5s-1.233-.666-2-1.5c-.767-.833-1.667-1.5-2.033-1.5-.334 0-.767-.2-.9-.433-.367-.567-2.367-1.567-3.134-1.567-.366 0-.733-.233-.833-.5-.133-.333-.667-.5-1.5-.5-.867 0-1.4-.166-1.5-.5-.167-.4-1.133-.5-5.7-.5-4.1 0-5.467.1-5.367.4.1.234.5.5.967.6.433.134 1.633.6 2.633 1.067s2.834 1.333 4.1 1.9c1.234.567 2.3 1.033 2.4 1.033.067 0 1.3.8 2.667 1.734 1.4.966 2.833 1.933 3.2 2.133 1.367.767 9.633 7.733 12 10.1 1.467 1.467 6.867 6.034 7.134 6.034.133 0 1 .666 1.933 1.5.967.833 1.9 1.5 2.067 1.5.2 0 .8.433 1.333 1 .533.533 1.167 1 1.433 1 .234 0 1.334.666 2.4 1.5 1.067.833 2.1 1.5 2.3 1.5.267 0 2.167 1.066 5.3 3.066 2.8 1.734 4.534 2.234 10.467 2.934 1.4.166 3.5.466 4.667.666 3.2.5 8.633.4 9.4-.166.433-.334 1.467-.5 3-.5 1.567-.034 2.6-.2 3-.5.367-.267 1.2-.5 1.9-.5.667 0 1.4-.234 1.634-.5.233-.267.9-.5 1.5-.5s1.266-.234 1.5-.5c.233-.267.6-.5.833-.5 1.3 0 8.167-5.867 8.167-6.967 0-.267.2-.733.433-1 .533-.633 1.3-2.567 2.033-5.067.667-2.3.734-10.2.1-11.967-.466-1.3-2.766-4.7-3.433-5.1-.233-.133-1.4-1.566-2.567-3.166-2.366-3.234-7.333-7.734-8.5-7.734-.466 0-4.066-2.367-4.066-2.667 0-.133-.334-.333-.767-.466-.4-.1-1.534-.867-2.5-1.7-1-.834-1.934-1.5-2.1-1.5-.2 0-1.867-1.467-3.734-3.267s-3.8-3.5-4.266-3.8-3.5-3.1-6.734-6.233c-3.2-3.134-6-5.7-6.2-5.7s-1.533-1.1-3-2.434c-2.5-2.267-3.333-2.933-6.933-5.467-.834-.566-1.9-1.4-2.4-1.866-.467-.434-1.434-1.134-2.1-1.534-.7-.433-1.267-.866-1.267-1.033 0-.133-.333-.333-.767-.467-.433-.1-1.2-.566-1.7-1.033s-1.166-.833-1.533-.833c-.333 0-1-.467-1.433-1-.467-.567-1.167-1-1.567-1-.367 0-.767-.234-.867-.5-.133-.267-.566-.5-1-.5-.466 0-.9-.234-1-.5-.133-.267-.566-.5-1-.5-.4 0-.9-.2-1.033-.434-.367-.533-6.434-3.566-7.2-3.566-.334 0-.667-.234-.767-.5-.133-.267-.567-.5-1-.5-.467 0-.9-.234-1-.5-.133-.267-.567-.5-1-.5-.467 0-.9-.234-1-.5-.133-.334-.667-.5-1.5-.5-.867 0-1.4-.167-1.5-.5-.133-.334-.667-.5-1.5-.5-.867 0-1.4-.167-1.5-.5-.167-.367-.7-.5-2-.5s-1.867-.134-2-.5c-.3-.734-10.667-.734-11.6 0"/></svg>